<?xml version="1.0" encoding="iso-8859-1"?>
<!DOCTYPE svg PUBLIC "-//W3C//DTD SVG 1.1//EN" "http://www.w3.org/Graphics/SVG/1.1/DTD/svg11.dtd">
<svg version="1.1" id="Capa_1" xmlns="http://www.w3.org/2000/svg" xmlns:xlink="http://www.w3.org/1999/xlink" x="0px" y="0px" width="180px" height="180px" viewBox="0 0 180 180" style="enable-background:new 0 0 180 180" xml:space="preserve">
<path style="fill: #fff" d="M165.348,78.607c-0.644-7.253-2.535-13.099-5.26-17.771c1.424-10.581,3.635-45.135-25.381-60.837
	c3.304,17.026-2.021,34.011-7.731,46.225c-16.189,1.882-32.347,12.197-36.99,25.584c-4.649-13.388-20.797-23.702-36.98-25.584
	C47.298,34.011,41.97,17.035,45.268,0C16.264,15.696,18.463,50.238,19.89,60.825c-2.728,4.667-4.616,10.518-5.267,17.777
	C8.893,142.521,89.98,179.971,89.98,179.971S171.07,142.521,165.348,78.607z"/>
</svg>
